<?xml version="1.0" encoding="utf-8"?>
<!-- Generator: Adobe Illustrator 27.5.0, SVG Export Plug-In . SVG Version: 6.00 Build 0)  -->
<svg version="1.1" xmlns="http://www.w3.org/2000/svg" xmlns:xlink="http://www.w3.org/1999/xlink" x="0px" y="0px"
	 viewBox="0 0 500 500" style="enable-background:new 0 0 500 500;" xml:space="preserve">
<g id="BACKGROUND">
	<rect style="fill:#DFEAE4;" width="500" height="500"/>
</g>
<g id="OBJECTS">
	<g>
		<circle style="fill:#335643;" cx="126.057" cy="134.984" r="91.669"/>
		<g>
			<path style="fill:none;stroke:#FFFFFF;stroke-width:0.8594;stroke-linecap:round;stroke-miterlimit:10;" d="M178.433,81.066
				c14.059,13.659,22.793,32.769,22.793,53.918c0,17.616-6.06,33.817-16.209,46.632"/>
			<path style="fill:none;stroke:#FFFFFF;stroke-width:0.8594;stroke-linecap:round;stroke-miterlimit:10;" d="M73.682,81.066
				c-14.059,13.659-22.793,32.769-22.793,53.918c0,17.616,6.06,33.817,16.209,46.632"/>
		</g>
		<g>
			<circle style="fill:#3D634D;" cx="126.057" cy="134.984" r="58.958"/>
			<g>
				<path style="fill:#FFA739;" d="M109.076,131.007c9.378,0,16.981-7.602,16.981-16.981c0-9.378-7.603-16.981-16.981-16.981
					s-16.98,7.602-16.98,16.981C92.096,123.404,99.698,131.007,109.076,131.007z"/>
				<path style="fill:#FFFFFF;" d="M162.903,131.381h-4.546c-1.361-7.638-5.764-14.22-11.94-18.416v-12.169l-11.903,7.605
					c-1.299-0.183-2.616-0.31-3.965-0.31h-2.253c0.579,1.876,0.893,3.869,0.893,5.935c0,11.108-9.005,20.113-20.113,20.113
					c-7.535,0-14.093-4.15-17.538-10.283c-1.868,3.775-2.946,8.011-2.946,12.508v0c0,10.097,5.309,18.933,13.271,23.934v8.873
					h14.508v-4.559c0.166,0.003,0.328,0.025,0.495,0.025h13.683c0.167,0,0.328-0.022,0.494-0.025v4.559h14.508v-8.873
					c5.52-3.467,9.756-8.773,11.835-15.076h5.516V131.381z M145.552,127.545c-1.411,0-2.555-1.144-2.555-2.555
					c0-1.411,1.144-2.555,2.555-2.555c1.411,0,2.555,1.144,2.555,2.555C148.107,126.401,146.963,127.545,145.552,127.545z"/>
				<path style="fill:#3D634D;" d="M114.539,115.125c-0.305-0.489-0.701-0.882-1.189-1.18c-0.488-0.299-1.027-0.536-1.619-0.712
					c-0.49-0.147-0.982-0.272-1.473-0.39v-3.478c0.369,0.045,0.741,0.111,1.119,0.215c0.664,0.183,1.328,0.464,1.994,0.845
					l1.016-2.503c-0.664-0.42-1.431-0.735-2.299-0.945c-0.603-0.146-1.214-0.222-1.83-0.267v-2.245h-2.036v2.296
					c-0.797,0.089-1.531,0.234-2.125,0.501c-0.889,0.4-1.553,0.935-1.994,1.607c-0.441,0.671-0.661,1.413-0.661,2.227
					c0,0.76,0.152,1.384,0.457,1.872c0.305,0.488,0.704,0.882,1.192,1.18c0.488,0.299,1.027,0.543,1.616,0.733
					c0.506,0.163,1.01,0.291,1.515,0.408v3.395c-0.598-0.058-1.192-0.159-1.778-0.355c-0.835-0.278-1.558-0.634-2.168-1.068
					l-1.119,2.482c0.638,0.488,1.478,0.886,2.522,1.191c0.815,0.238,1.669,0.355,2.543,0.407v2.247h2.036v-2.304
					c0.774-0.092,1.487-0.239,2.064-0.503c0.889-0.407,1.555-0.943,2.003-1.608c0.448-0.664,0.671-1.396,0.671-2.197
					C114.996,116.23,114.844,115.613,114.539,115.125z M107.163,111.819c-0.298-0.224-0.446-0.519-0.446-0.886
					c0-0.311,0.087-0.587,0.263-0.823c0.176-0.237,0.469-0.43,0.875-0.579c0.107-0.039,0.243-0.059,0.366-0.088v2.872
					C107.794,112.184,107.436,112.022,107.163,111.819z M111.438,118.014c-0.19,0.231-0.486,0.41-0.887,0.538
					c-0.084,0.027-0.198,0.04-0.293,0.061v-2.788c0.407,0.133,0.755,0.293,1.016,0.488c0.298,0.224,0.448,0.527,0.448,0.906
					C111.721,117.519,111.628,117.783,111.438,118.014z"/>
			</g>
		</g>
		<g>
			<path id="SVGID_x5F_1_x5F_" style="fill:none;" d="M192.339,134.984c0,36.606-29.675,66.282-66.282,66.282
				s-66.282-29.675-66.282-66.282c0-36.606,29.675-66.282,66.282-66.282S192.339,98.378,192.339,134.984z"/>
			<text>			<textPath  xlink:href="#SVGID_x5F_1_x5F_" startOffset="733.3333%">
<tspan  style="fill:#FFFFFF; font-family:'Montserrat-Bold'; font-size:17.1878px; letter-spacing:25;">banking</tspan>			</textPath>
</text>
			<g>
				<path id="SVGID_x5F_00000173854258213187475660000004331250184422479531_x5F_" style="fill:none;" d="M208.493,136.313
					c0-44.45-36.034-80.484-80.484-80.484s-80.484,36.034-80.484,80.484s36.034,80.484,80.484,80.484
					S208.493,180.763,208.493,136.313z"/>
				<text>				<textPath  xlink:href="#SVGID_x5F_00000173854258213187475660000004331250184422479531_x5F_" startOffset="-13833.2842%">
<tspan  style="fill:#FFA739; font-family:'Montserrat-Bold'; font-size:20.9702px;">services</tspan>				</textPath>
</text>
			</g>
		</g>
		<g>
			<path style="fill:#C2D3C9;" d="M162.29,115.523c-0.893-1.421-2.611-3.139-4.032-4.032c-0.6-0.378-0.6-0.848,0-1.226
				c1.422-0.893,3.139-2.611,4.032-4.032c0.378-0.6,0.848-0.6,1.226,0c0.893,1.421,2.611,3.139,4.032,4.032
				c0.601,0.378,0.601,0.848,0,1.226c-1.422,0.893-3.14,2.611-4.032,4.032C163.139,116.124,162.667,116.124,162.29,115.523z"/>
			<path style="fill:#C2D3C9;" d="M152.306,96.82c-0.447-0.711-1.305-1.57-2.016-2.016c-0.3-0.189-0.3-0.424,0-0.613
				c0.711-0.446,1.57-1.305,2.016-2.016c0.189-0.3,0.424-0.3,0.613,0c0.446,0.711,1.306,1.57,2.016,2.016
				c0.3,0.189,0.3,0.424,0,0.613c-0.711,0.446-1.57,1.305-2.016,2.016C152.731,97.12,152.495,97.12,152.306,96.82z"/>
			<path style="fill:#C2D3C9;" d="M89.242,170.102c-0.447-0.711-1.305-1.57-2.016-2.016c-0.3-0.189-0.3-0.424,0-0.613
				c0.711-0.446,1.57-1.305,2.016-2.016c0.189-0.3,0.424-0.3,0.613,0c0.446,0.711,1.306,1.57,2.016,2.016
				c0.3,0.189,0.3,0.424,0,0.613c-0.711,0.446-1.57,1.305-2.016,2.016C89.666,170.402,89.43,170.402,89.242,170.102z"/>
		</g>
	</g>
	<g>
		<path style="fill:#335643;" d="M420.014,220.525H316.461c-18.647,0-33.764-15.117-33.764-33.764V83.207
			c0-18.647,15.117-33.764,33.764-33.764h103.553c18.647,0,33.764,15.117,33.764,33.764V186.76
			C453.779,205.408,438.662,220.525,420.014,220.525z"/>
		<path style="fill:none;stroke:#FFFFFF;stroke-width:0.889;stroke-linecap:round;stroke-miterlimit:10;" d="M413.489,60.224
			c16.297,0,29.509,13.212,29.509,29.509v90.503c0,16.297-13.212,29.509-29.509,29.509"/>
		<path style="fill:none;stroke:#FFFFFF;stroke-width:0.889;stroke-linecap:round;stroke-miterlimit:10;" d="M322.986,60.224
			c-16.297,0-29.509,13.212-29.509,29.509v90.503c0,16.297,13.212,29.509,29.509,29.509"/>
		<g>
			<circle style="fill:#3D634D;" cx="368.238" cy="104.694" r="46.94"/>
			<g>
				<g>
					<rect x="324.907" y="84.75" style="fill:#FFFFFF;" width="86.662" height="4.74"/>
				</g>
				<g>
					<rect x="324.907" y="130.998" style="fill:#FFFFFF;" width="86.662" height="4.74"/>
				</g>
				<g>
					<rect x="318.652" y="134.996" style="fill:#FFFFFF;" width="99.171" height="4.74"/>
				</g>
				<g>
					<rect x="331.193" y="78.56" style="fill:#FFFFFF;" width="74.089" height="4.74"/>
				</g>
				<g>
					<path style="fill:#FFFFFF;" d="M368.238,62.858L342.52,77.109h51.436L368.238,62.858z M368.238,66.332l15.18,8.412h-30.359
						L368.238,66.332z"/>
				</g>
				<g>
					<rect x="332.773" y="93.841" style="fill:#FFFFFF;" width="5.094" height="39.527"/>
				</g>
				<g>
					<rect x="328.121" y="93.39" style="fill:#FFFFFF;" width="14.399" height="3.095"/>
				</g>
				<g>
					<rect x="325.68" y="88.941" style="fill:#FFFFFF;" width="19.28" height="3.095"/>
				</g>
				<g>
					
						<rect x="398.608" y="93.841" transform="matrix(-1 -1.224647e-16 1.224647e-16 -1 802.3103 227.2097)" style="fill:#FFFFFF;" width="5.094" height="39.527"/>
				</g>
				<g>
					
						<rect x="393.956" y="93.39" transform="matrix(-1 -1.224647e-16 1.224647e-16 -1 802.3103 189.8754)" style="fill:#FFFFFF;" width="14.399" height="3.095"/>
				</g>
				<g>
					
						<rect x="391.515" y="88.941" transform="matrix(-1 -1.224647e-16 1.224647e-16 -1 802.3103 180.9771)" style="fill:#FFFFFF;" width="19.28" height="3.095"/>
				</g>
				<g>
					<path style="fill:#FFFFFF;" d="M384.799,133.649h-33.123V92.24h33.123V133.649z M353.977,131.348h28.521V94.541h-28.521
						V131.348z"/>
				</g>
				<g>
					<rect x="367.142" y="93.39" style="fill:#FFFFFF;" width="2.194" height="40.462"/>
				</g>
				<g>
					<rect x="348.765" y="91.456" style="fill:#FFFFFF;" width="38.946" height="4.295"/>
				</g>
				<path style="fill:#FFA739;" d="M368.238,125.609c6.511,0,11.79-5.278,11.79-11.789s-5.279-11.789-11.79-11.789
					c-6.511,0-11.789,5.278-11.789,11.789S361.727,125.609,368.238,125.609z"/>
				<path style="fill:#3D634D;" d="M372.031,114.583c-0.212-0.34-0.487-0.612-0.826-0.819c-0.339-0.208-0.713-0.372-1.124-0.494
					c-0.34-0.102-0.682-0.189-1.023-0.271v-2.415c0.256,0.031,0.514,0.077,0.777,0.149c0.461,0.127,0.922,0.322,1.385,0.586
					l0.705-1.738c-0.461-0.292-0.993-0.511-1.596-0.656c-0.418-0.101-0.843-0.154-1.27-0.185v-1.559h-1.414v1.594
					c-0.554,0.062-1.063,0.162-1.476,0.348c-0.617,0.278-1.078,0.649-1.384,1.116c-0.306,0.466-0.459,0.981-0.459,1.547
					c0,0.528,0.106,0.961,0.318,1.3c0.212,0.339,0.489,0.612,0.827,0.819c0.339,0.208,0.713,0.377,1.122,0.509
					c0.351,0.113,0.701,0.202,1.052,0.284v2.357c-0.415-0.04-0.827-0.11-1.235-0.246c-0.58-0.193-1.081-0.441-1.505-0.742
					l-0.777,1.723c0.443,0.339,1.026,0.615,1.751,0.827c0.566,0.165,1.159,0.246,1.766,0.283v1.56h1.414v-1.599
					c0.537-0.064,1.032-0.166,1.433-0.349c0.617-0.283,1.08-0.655,1.391-1.117c0.311-0.461,0.466-0.969,0.466-1.525
					C372.349,115.35,372.243,114.922,372.031,114.583z M366.91,112.287c-0.207-0.156-0.309-0.36-0.309-0.615
					c0-0.216,0.06-0.407,0.182-0.572c0.122-0.164,0.326-0.299,0.607-0.402c0.074-0.027,0.169-0.041,0.254-0.061v1.994
					C367.348,112.541,367.1,112.429,366.91,112.287z M369.878,116.589c-0.132,0.16-0.337,0.285-0.616,0.374
					c-0.059,0.019-0.137,0.028-0.204,0.043v-1.936c0.283,0.093,0.524,0.204,0.705,0.339c0.207,0.156,0.311,0.366,0.311,0.629
					C370.075,116.245,370.01,116.428,369.878,116.589z"/>
			</g>
		</g>
		<g>
			
				<text transform="matrix(1 0 0 1 318.5027 174.3874)" style="fill:#FFFFFF; font-family:'Montserrat-Bold'; font-size:21.8278px;">Financial</text>
			<text transform="matrix(1 0 0 1 325.8377 194.695)" style="fill:#FFA739; font-family:'Montserrat-Bold'; font-size:21.8278px;">services</text>
		</g>
		<g>
			<path style="fill:#C2D3C9;" d="M309.849,96.885c-0.893-1.421-2.611-3.139-4.032-4.032c-0.6-0.378-0.6-0.848,0-1.226
				c1.422-0.893,3.139-2.611,4.032-4.032c0.378-0.6,0.848-0.6,1.226,0c0.893,1.422,2.611,3.139,4.032,4.032
				c0.601,0.378,0.601,0.848,0,1.226c-1.422,0.893-3.14,2.611-4.032,4.032C310.697,97.485,310.226,97.485,309.849,96.885z"/>
			<path style="fill:#C2D3C9;" d="M320.991,77.067c-0.447-0.711-1.306-1.57-2.016-2.016c-0.3-0.189-0.3-0.424,0-0.613
				c0.711-0.446,1.57-1.305,2.016-2.016c0.189-0.3,0.424-0.3,0.613,0c0.446,0.711,1.306,1.57,2.016,2.016
				c0.3,0.189,0.3,0.424,0,0.613c-0.711,0.446-1.57,1.305-2.016,2.016C321.415,77.367,321.179,77.367,320.991,77.067z"/>
			<path style="fill:#C2D3C9;" d="M417.517,128.971c-0.447-0.711-1.306-1.57-2.016-2.016c-0.3-0.189-0.3-0.424,0-0.613
				c0.711-0.446,1.57-1.305,2.016-2.016c0.189-0.3,0.424-0.3,0.613,0c0.446,0.711,1.306,1.57,2.016,2.016
				c0.3,0.189,0.3,0.424,0,0.613c-0.711,0.446-1.57,1.305-2.016,2.016C417.941,129.271,417.705,129.271,417.517,128.971z"/>
		</g>
	</g>
	<g>
		<path style="fill:#335643;" d="M126.057,459.839L126.057,459.839c-46.833,0-84.798-37.965-84.798-84.798v-25.908
			c0-46.832,37.965-84.798,84.798-84.798h0c46.832,0,84.798,37.965,84.798,84.798v25.908
			C210.855,421.874,172.89,459.839,126.057,459.839z"/>
		<path style="fill:#335643;" d="M126.057,459.839L126.057,459.839c-46.833,0-84.798-37.965-84.798-84.798v-25.908
			c0-46.832,37.965-84.798,84.798-84.798h0c46.832,0,84.798,37.965,84.798,84.798v25.908
			C210.855,421.874,172.89,459.839,126.057,459.839z"/>
		<g>
			<path style="fill:none;stroke:#FFFFFF;stroke-width:0.8594;stroke-linecap:round;stroke-miterlimit:10;" d="M178.207,306.277
				c10.783,12.006,17.344,27.883,17.344,45.291v20.717c0,13.726-4.079,26.5-11.09,37.176"/>
			<path style="fill:none;stroke:#FFFFFF;stroke-width:0.8594;stroke-linecap:round;stroke-miterlimit:10;" d="M73.907,306.277
				c-10.783,12.006-17.344,27.883-17.344,45.291v20.717c0,13.726,4.079,26.5,11.09,37.176"/>
		</g>
		<path style="fill:#3D634D;" d="M71.097,357.445v8.391c0,30.353,24.606,54.96,54.96,54.96h0c30.353,0,54.96-24.606,54.96-54.96
			v-8.391c0-17.786-14.418-32.204-32.204-32.204h-45.511C85.516,325.241,71.097,339.659,71.097,357.445z"/>
		<g>
			<g>
				<g>
					<path style="fill:#FFFFFF;" d="M79.492,389.925v8.52c0,1.47,15.915,2.663,35.546,2.663c19.631,0,35.546-1.192,35.546-2.663
						v-8.52H79.492z"/>
					<ellipse style="fill:#C2D3C9;" cx="115.038" cy="389.925" rx="35.546" ry="2.663"/>
					<path style="fill:#C2D3C9;" d="M147.123,389.794c0,1.101-14.365,1.994-32.085,1.994s-32.085-0.893-32.085-1.994
						c0-1.101,14.365-1.994,32.085-1.994S147.123,388.693,147.123,389.794z"/>
					<path style="fill:#82A891;" d="M84.437,390.394c4.098-0.808,16.246-1.394,30.601-1.394s26.503,0.586,30.601,1.394
						c0.961-0.189,1.484-0.391,1.484-0.6c0-1.101-14.365-1.994-32.085-1.994c-17.72,0-32.085,0.893-32.085,1.994
						C82.954,390.004,83.477,390.205,84.437,390.394z"/>
				</g>
				<g>
					<path style="fill:#FFFFFF;" d="M82.022,379.211v8.52c0,1.47,15.915,2.663,35.546,2.663c19.631,0,35.545-1.192,35.545-2.663
						v-8.52H82.022z"/>
					<path style="fill:#C2D3C9;" d="M153.114,379.211c0,1.471-15.914,2.663-35.546,2.663s-35.546-1.192-35.546-2.663
						c0-1.471,15.914-2.663,35.546-2.663S153.114,377.741,153.114,379.211z"/>
					<ellipse style="fill:#C2D3C9;" cx="117.568" cy="379.081" rx="32.084" ry="1.994"/>
					<path style="fill:#82A891;" d="M86.967,379.681c4.097-0.808,16.246-1.394,30.601-1.394s26.503,0.586,30.601,1.394
						c0.961-0.189,1.484-0.391,1.484-0.6c0-1.101-14.365-1.994-32.084-1.994c-17.72,0-32.085,0.893-32.085,1.994
						C85.483,379.29,86.006,379.491,86.967,379.681z"/>
				</g>
				<g>
					<path style="fill:#FFFFFF;" d="M76.963,368.498v8.52c0,1.47,15.915,2.663,35.546,2.663c19.631,0,35.545-1.192,35.545-2.663
						v-8.52H76.963z"/>
					<ellipse style="fill:#C2D3C9;" cx="112.509" cy="368.498" rx="35.546" ry="2.663"/>
					<path style="fill:#C2D3C9;" d="M144.593,368.368c0,1.101-14.365,1.994-32.085,1.994s-32.084-0.893-32.084-1.994
						c0-1.101,14.365-1.994,32.084-1.994S144.593,367.267,144.593,368.368z"/>
					<path style="fill:#82A891;" d="M81.908,368.968c4.097-0.808,16.246-1.394,30.601-1.394s26.503,0.586,30.601,1.394
						c0.961-0.189,1.483-0.391,1.483-0.6c0-1.101-14.365-1.994-32.084-1.994c-17.72,0-32.084,0.893-32.084,1.994
						C80.424,368.577,80.947,368.778,81.908,368.968z"/>
				</g>
				<g>
					<path style="fill:#FFFFFF;" d="M76.963,357.185v8.52c0,1.47,15.915,2.663,35.546,2.663c19.631,0,35.545-1.192,35.545-2.663
						v-8.52H76.963z"/>
					<ellipse style="fill:#C2D3C9;" cx="112.509" cy="357.185" rx="35.546" ry="2.663"/>
					<path style="fill:#C2D3C9;" d="M144.593,357.055c0,1.101-14.365,1.994-32.085,1.994s-32.084-0.893-32.084-1.994
						c0-1.101,14.365-1.994,32.084-1.994S144.593,355.953,144.593,357.055z"/>
					<path style="fill:#82A891;" d="M81.908,357.654c4.097-0.808,16.246-1.394,30.601-1.394s26.503,0.586,30.601,1.394
						c0.961-0.189,1.483-0.391,1.483-0.6c0-1.101-14.365-1.994-32.084-1.994c-17.72,0-32.084,0.893-32.084,1.994
						C80.424,357.264,80.947,357.465,81.908,357.654z"/>
				</g>
				<g>
					<path style="fill:#FFA739;" d="M80.091,346.471v8.52c0,1.47,15.915,2.663,35.546,2.663c19.631,0,35.545-1.192,35.545-2.663
						v-8.52H80.091z"/>
					<path style="fill:#FFD366;" d="M151.183,346.471c0,1.471-15.914,2.663-35.546,2.663s-35.546-1.192-35.546-2.663
						c0-1.471,15.914-2.663,35.546-2.663S151.183,345.001,151.183,346.471z"/>
					<ellipse style="fill:#FFA739;" cx="115.637" cy="346.341" rx="32.084" ry="1.994"/>
					<path style="fill:#FF7939;" d="M85.036,346.941c4.097-0.808,16.246-1.394,30.601-1.394s26.503,0.586,30.601,1.394
						c0.961-0.189,1.483-0.391,1.483-0.6c0-1.101-14.365-1.994-32.084-1.994c-17.72,0-32.084,0.893-32.084,1.994
						C83.553,346.55,84.076,346.752,85.036,346.941z"/>
				</g>
				<g>
					<path style="fill:#FFFFFF;" d="M157.602,329.87l-8.314,1.865c-1.435,0.322,0.885,16.112,5.181,35.267
						c4.297,19.155,8.943,34.423,10.378,34.101l8.314-1.865L157.602,329.87z"/>
					<path style="fill:#C2D3C9;" d="M173.161,399.238c-1.435,0.322-6.081-14.946-10.378-34.101
						c-4.296-19.156-6.616-34.945-5.182-35.267c1.435-0.322,6.081,14.946,10.378,34.102
						C172.276,383.127,174.595,398.916,173.161,399.238z"/>
					<path style="fill:#C2D3C9;" d="M172.53,395.832c-1.075,0.241-5.089-13.58-8.968-30.87c-3.878-17.29-6.151-31.502-5.076-31.743
						c1.075-0.241,5.089,13.58,8.968,30.87C171.332,381.379,173.605,395.591,172.53,395.832z"/>
					<path style="fill:#82A891;" d="M158.225,334.797c1.685,3.821,4.916,15.547,8.057,29.554
						c3.142,14.007,5.229,25.989,5.337,30.164c0.395,0.896,0.706,1.362,0.91,1.316c1.075-0.241-1.198-14.453-5.076-31.743
						c-3.878-17.29-7.893-31.111-8.968-30.87C158.282,333.265,158.2,333.819,158.225,334.797z"/>
				</g>
			</g>
		</g>
		<g>
			<g>
				<path id="SVGID_x5F_00000054953202476886626140000015270061796934128534_x5F_" style="fill:none;" d="M48.891,370.438
					c0,42.617,34.548,77.166,77.165,77.166h0c42.617,0,77.166-34.548,77.166-77.166"/>
				<text>				<textPath  xlink:href="#SVGID_x5F_00000054953202476886626140000015270061796934128534_x5F_" startOffset="0%">
<tspan  style="fill:#FFA739; font-family:'Montserrat-Bold'; font-size:20.9702px;">SERVICES</tspan>				</textPath>
</text>
			</g>
			<text transform="matrix(1 0 0 1 93.74 314.3341)" style="fill:#FFFFFF; font-family:'Montserrat-Bold'; font-size:26.3546px;">BANK</text>
		</g>
		<g>
			<path style="fill:#C2D3C9;" d="M109.929,338.223c-0.893-1.421-2.611-3.139-4.032-4.032c-0.6-0.378-0.6-0.848,0-1.226
				c1.422-0.893,3.139-2.611,4.032-4.032c0.378-0.6,0.848-0.6,1.226,0c0.893,1.421,2.611,3.139,4.032,4.032
				c0.601,0.378,0.601,0.848,0,1.226c-1.422,0.893-3.14,2.611-4.032,4.032C110.777,338.823,110.306,338.823,109.929,338.223z"/>
			<path style="fill:#C2D3C9;" d="M177.9,351.811c-0.447-0.711-1.305-1.57-2.016-2.016c-0.3-0.189-0.3-0.424,0-0.613
				c0.711-0.446,1.57-1.305,2.016-2.016c0.189-0.3,0.424-0.3,0.613,0c0.446,0.711,1.306,1.57,2.016,2.016
				c0.3,0.189,0.3,0.424,0,0.613c-0.711,0.446-1.57,1.305-2.016,2.016C178.325,352.111,178.089,352.111,177.9,351.811z"/>
			<path style="fill:#C2D3C9;" d="M78.208,408.796c-0.447-0.711-1.305-1.57-2.016-2.016c-0.3-0.189-0.3-0.424,0-0.613
				c0.711-0.446,1.57-1.305,2.016-2.016c0.189-0.3,0.424-0.3,0.613,0c0.446,0.711,1.306,1.57,2.016,2.016
				c0.3,0.189,0.3,0.424,0,0.613c-0.711,0.446-1.57,1.305-2.016,2.016C78.633,409.096,78.397,409.096,78.208,408.796z"/>
		</g>
	</g>
	<g>
		<path style="fill:#335643;" d="M404.584,274.452h-72.693c-8.818,0-16.966,4.704-21.375,12.341l-36.346,62.954
			c-4.409,7.637-4.409,17.045,0,24.682l36.346,62.954c4.409,7.636,12.557,12.341,21.375,12.341h72.693
			c8.818,0,16.966-4.704,21.375-12.341l36.346-62.954c4.409-7.637,4.409-17.045,0-24.682l-36.346-62.954
			C421.55,279.156,413.402,274.452,404.584,274.452z"/>
		<path style="fill:none;stroke:#FFFFFF;stroke-width:0.8594;stroke-linecap:round;stroke-miterlimit:10;" d="M416.465,424.997
			l30.368-52.599c3.684-6.38,3.684-14.242,0-20.622l-28.584-49.508"/>
		<path style="fill:none;stroke:#FFFFFF;stroke-width:0.8594;stroke-linecap:round;stroke-miterlimit:10;" d="M320.011,424.997
			l-30.368-52.599c-3.684-6.38-3.684-14.242,0-20.622l28.584-49.508"/>
		<g>
			<circle style="fill:#3D634D;" cx="368.238" cy="362.087" r="46.934"/>
			<g>
				<path style="fill:#FFFFFF;" d="M412.096,388.702H324.38c-3.398,0-6.153-2.755-6.153-6.153v-40.925
					c0-3.398,2.755-6.153,6.153-6.153h87.716c3.398,0,6.153,2.755,6.153,6.153v40.925
					C418.249,385.948,415.494,388.702,412.096,388.702z"/>
				<rect x="318.227" y="345.81" style="fill:#FFA739;" width="100.022" height="10.732"/>
				<rect x="325.167" y="362.874" style="fill:#3D634D;" width="33.269" height="2.146"/>
				<rect x="325.167" y="369.421" style="fill:#3D634D;" width="10.374" height="2.146"/>
				<rect x="340.549" y="369.421" style="fill:#3D634D;" width="10.374" height="2.146"/>
				<path style="fill:#3D634D;" d="M407.266,381.369h-16.813c-1.719,0-3.112-1.393-3.112-3.112v-5.724
					c0-1.719,1.393-3.112,3.112-3.112h16.813c1.719,0,3.112,1.393,3.112,3.112v5.724
					C410.378,379.975,408.985,381.369,407.266,381.369z"/>
				<rect x="325.167" y="378.221" style="fill:#FFA739;" width="50.762" height="3.756"/>
			</g>
		</g>
		<g>
			
				<text transform="matrix(1 0 0 1 337.0008 305.1779)" style="fill:#FFFFFF; font-family:'Montserrat-Bold'; font-size:21.8278px;">CREDIT</text>
		</g>
		<g>
			
				<text transform="matrix(1 0 0 1 343.7234 435.6632)" style="fill:#FFA739; font-family:'Montserrat-Bold'; font-size:21.8278px;">CARD</text>
		</g>
		<g>
			<path style="fill:#C2D3C9;" d="M386.727,330.899c-0.893-1.421-2.611-3.139-4.032-4.032c-0.6-0.378-0.6-0.848,0-1.226
				c1.422-0.893,3.139-2.611,4.032-4.032c0.378-0.6,0.848-0.6,1.226,0c0.893,1.421,2.611,3.139,4.032,4.032
				c0.601,0.378,0.601,0.848,0,1.226c-1.422,0.893-3.14,2.611-4.032,4.032C387.576,331.5,387.105,331.5,386.727,330.899z"/>
			<path style="fill:#C2D3C9;" d="M408.769,329.46c-0.447-0.711-1.306-1.57-2.016-2.016c-0.3-0.189-0.3-0.424,0-0.613
				c0.711-0.446,1.57-1.305,2.016-2.016c0.189-0.3,0.424-0.3,0.613,0c0.446,0.711,1.306,1.57,2.016,2.016
				c0.3,0.189,0.3,0.424,0,0.613c-0.711,0.446-1.57,1.305-2.016,2.016C409.194,329.76,408.958,329.76,408.769,329.46z"/>
			<path style="fill:#C2D3C9;" d="M324.86,402.612c-0.447-0.711-1.305-1.57-2.016-2.016c-0.3-0.189-0.3-0.424,0-0.613
				c0.711-0.446,1.57-1.305,2.016-2.016c0.189-0.3,0.424-0.3,0.613,0c0.446,0.711,1.306,1.57,2.016,2.016
				c0.3,0.189,0.3,0.424,0,0.613c-0.711,0.446-1.57,1.305-2.016,2.016C325.284,402.912,325.049,402.912,324.86,402.612z"/>
		</g>
	</g>
</g>
</svg>
