<?xml version="1.0" standalone="no"?>
<!DOCTYPE svg PUBLIC "-//W3C//DTD SVG 20010904//EN"
 "http://www.w3.org/TR/2001/REC-SVG-20010904/DTD/svg10.dtd">
<svg version="1.0" xmlns="http://www.w3.org/2000/svg"
 width="566.000000pt" height="194.000000pt" viewBox="0 0 566.000000 194.000000"
 preserveAspectRatio="xMidYMid meet">
<metadata>
Created by potrace 1.16, written by Peter Selinger 2001-2019
</metadata>
<g transform="translate(0.000000,194.000000) scale(0.100000,-0.100000)"
fill="#000000" stroke="none">
<path d="M4620 1304 l0 -96 -37 8 c-93 20 -167 -7 -199 -74 -23 -46 -31 -190
-14 -252 7 -27 27 -59 50 -82 33 -34 43 -38 86 -38 32 0 61 7 82 20 l34 21 5
-21 c4 -16 14 -20 44 -20 l39 0 0 315 0 315 -45 0 -45 0 0 -96z m-26 -164 l26
-10 0 -129 c0 -119 -2 -131 -19 -141 -32 -17 -89 -12 -110 9 -43 43 -51 162
-16 231 23 45 68 60 119 40z"/>
<path d="M5470 1301 l0 -99 -46 14 c-93 28 -179 -22 -204 -118 -19 -69 -9
-205 19 -254 41 -74 117 -94 196 -54 47 24 42 24 48 0 4 -15 14 -20 41 -20
l36 0 0 315 0 315 -45 0 -45 0 0 -99z m-26 -161 l26 -10 0 -129 c0 -119 -2
-131 -19 -141 -22 -11 -71 -13 -96 -4 -44 17 -66 159 -36 232 21 51 72 72 125
52z"/>
<path d="M746 1240 c-137 -189 -241 -319 -396 -493 l-122 -138 26 -28 c15 -16
53 -41 84 -57 54 -27 64 -29 187 -29 127 0 132 1 197 33 154 75 228 236 228
489 0 128 -19 222 -59 310 -17 34 -31 63 -33 63 -2 0 -53 -67 -112 -150z"/>
<path d="M3435 1356 c-99 -45 -150 -192 -125 -366 12 -86 40 -141 92 -183 32
-26 48 -31 110 -34 99 -6 142 15 146 71 3 36 2 38 -20 32 -118 -36 -161 -26
-198 49 -22 44 -25 62 -24 150 1 112 16 159 61 195 25 19 37 22 101 18 l72 -5
0 37 c0 25 -5 40 -16 44 -29 11 -169 5 -199 -8z"/>
<path d="M1190 1064 l0 -297 128 6 c194 8 243 38 250 151 5 71 -12 115 -54
142 l-25 17 26 27 c54 56 52 158 -4 214 l-31 31 -145 3 -145 3 0 -297z m241
197 c28 -34 25 -96 -6 -126 -20 -21 -34 -25 -80 -25 l-55 0 0 91 0 91 61 -4
c49 -4 66 -9 80 -27z m9 -239 c15 -12 24 -33 27 -63 4 -38 1 -50 -20 -74 -21
-25 -33 -29 -91 -33 l-66 -4 0 96 0 96 64 0 c46 0 70 -5 86 -18z"/>
<path d="M1743 1219 c-53 -11 -53 -11 -53 -49 l0 -38 37 10 c47 13 109 5 134
-18 11 -10 19 -30 19 -50 l0 -32 -70 -7 c-46 -5 -81 -14 -103 -29 -62 -42 -74
-144 -23 -202 31 -37 114 -44 169 -16 37 20 37 20 48 0 8 -14 19 -18 42 -16
l32 3 3 173 c3 191 -4 224 -56 254 -37 22 -114 29 -179 17z m135 -301 l-3 -63
-37 -9 c-58 -14 -88 4 -88 52 0 47 21 69 70 75 19 2 41 5 48 5 10 2 12 -14 10
-60z"/>
<path d="M2253 1217 c-17 -7 -35 -15 -39 -19 -13 -14 -34 -9 -34 8 0 12 -9 14
-42 12 l-43 -3 0 -220 0 -220 45 0 45 0 3 173 2 173 38 16 c25 10 44 13 62 6
l25 -8 5 -180 5 -180 45 0 45 0 3 177 c3 207 -5 239 -62 263 -41 17 -60 18
-103 2z"/>
<path d="M2643 1221 c-80 -20 -121 -80 -130 -190 -10 -120 26 -209 98 -246 36
-19 110 -19 154 -1 31 13 35 19 35 52 0 31 -3 35 -17 28 -28 -11 -90 -17 -119
-10 -35 9 -54 60 -54 148 0 120 41 163 136 141 l44 -10 0 37 c0 23 -5 40 -14
43 -29 11 -102 15 -133 8z"/>
<path d="M2983 1220 c-83 -19 -124 -82 -131 -201 -10 -173 68 -263 215 -246
25 2 57 13 72 24 36 26 71 101 78 165 13 129 -41 234 -132 257 -49 12 -56 12
-102 1z m102 -94 c63 -63 38 -264 -35 -274 -76 -12 -103 33 -98 160 3 84 5 91
31 114 36 30 71 31 102 0z"/>
<path d="M4880 1217 c-54 -12 -55 -13 -55 -47 0 -32 2 -35 25 -30 14 3 48 5
76 5 64 0 94 -23 94 -70 l0 -32 -68 -7 c-119 -12 -168 -58 -160 -153 4 -48 10
-61 37 -85 39 -35 107 -38 163 -9 36 20 36 20 41 0 5 -17 12 -20 44 -17 l38 3
0 182 c0 169 -2 184 -21 210 -39 52 -118 71 -214 50z m140 -295 c0 -53 -2 -60
-25 -70 -82 -38 -143 25 -96 97 8 12 52 24 109 30 8 1 12 -17 12 -57z"/>
<path d="M3734 1207 c-2 -7 -3 -107 -2 -222 l3 -210 45 0 45 0 3 223 2 222
-45 0 c-28 0 -48 -5 -51 -13z"/>
<path d="M3940 1045 c0 -189 8 -228 51 -259 32 -22 96 -20 142 4 46 25 47 25
47 -1 0 -18 5 -20 43 -17 l42 3 0 220 0 220 -47 3 -48 3 0 -174 0 -174 -25
-11 c-33 -15 -78 -15 -93 0 -8 8 -12 64 -12 185 l0 173 -50 0 -50 0 0 -175z"/>
</g>
</svg>
