<?xml version="1.0" standalone="no"?>
<!DOCTYPE svg PUBLIC "-//W3C//DTD SVG 20010904//EN"
 "http://www.w3.org/TR/2001/REC-SVG-20010904/DTD/svg10.dtd">
<svg version="1.0" xmlns="http://www.w3.org/2000/svg"
 width="720.000000pt" height="480.000000pt" viewBox="0 0 720.000000 480.000000"
 preserveAspectRatio="xMidYMid meet">
<metadata>
Created by potrace 1.16, written by Peter Selinger 2001-2019
</metadata>
<g transform="translate(0.000000,480.000000) scale(0.100000,-0.100000)"
fill="#000000" stroke="none">
<path d="M0 2400 l0 -2400 3600 0 3600 0 0 2400 0 2400 -3600 0 -3600 0 0
-2400z m4300 2170 c10 -7 -20 -10 -94 -10 -181 0 -326 -50 -439 -151 -164
-146 -164 -372 -1 -517 234 -209 675 -204 894 11 74 72 112 155 112 245 0 80
-19 136 -74 210 -42 56 -43 69 -2 25 39 -43 85 -146 91 -206 19 -186 -147
-367 -397 -434 -45 -12 -102 -17 -186 -17 l-121 0 -11 -30 c-136 -392 -205
-583 -214 -591 -8 -7 -9 -4 -4 10 56 152 217 617 214 619 -2 1 -28 8 -58 15
-143 35 -287 139 -346 251 -26 49 -29 65 -29 150 0 81 4 102 24 140 52 99 144
181 258 231 104 46 342 76 383 49z m-73 -145 c21 -15 83 -127 83 -150 0 -7 -9
-24 -21 -39 l-20 -26 -154 0 -154 0 -21 27 c-24 31 -21 65 10 98 10 11 30 33
45 48 20 22 33 28 58 26 19 -2 43 4 57 14 30 21 88 22 117 2z m1928 -194 c36
-5 1 -9 -130 -13 -147 -5 -197 -10 -276 -31 -298 -78 -524 -256 -600 -472 -26
-77 -35 -193 -19 -268 18 -88 83 -209 152 -283 103 -110 270 -206 438 -252
253 -70 554 -52 792 47 161 68 327 209 395 337 105 199 78 428 -73 604 -57 67
-56 79 2 16 55 -60 90 -119 122 -205 34 -94 34 -238 0 -332 -34 -93 -69 -149
-140 -225 -122 -130 -308 -227 -533 -279 -67 -15 -242 -22 -343 -14 -210 17
-429 96 -574 207 -37 29 -71 52 -75 52 -4 0 -100 -50 -213 -110 -112 -61 -209
-109 -214 -107 -5 2 10 13 35 26 131 68 379 203 379 207 0 3 -18 28 -41 56
-288 365 -76 832 451 992 151 45 342 65 465 47z m-3170 -83 c22 -26 26 -39 21
-67 -10 -68 -76 -92 -121 -46 -49 48 -17 145 49 145 15 0 34 -12 51 -32z
m1445 -77 c14 -10 30 -32 36 -49 5 -18 15 -37 22 -44 20 -20 14 -75 -10 -98
-20 -18 -35 -20 -165 -20 -139 0 -145 1 -168 25 -33 33 -32 68 5 105 17 17 30
35 30 40 0 14 41 33 71 32 15 0 45 8 66 19 42 22 73 19 113 -10z m-3385 -1
c13 -5 -28 -9 -110 -9 -161 -1 -263 -24 -393 -87 -120 -58 -214 -144 -268
-247 -38 -70 -39 -74 -39 -177 0 -102 1 -109 38 -182 80 -162 273 -289 502
-329 100 -17 321 -6 414 20 208 61 353 174 426 332 62 136 35 297 -72 427 -19
24 -33 45 -30 48 9 10 68 -72 104 -144 30 -60 37 -87 41 -151 6 -110 -22 -195
-104 -308 -16 -22 -14 -23 296 -178 172 -86 310 -158 307 -161 -3 -3 -145 65
-316 151 l-312 155 -58 -44 c-255 -196 -637 -229 -938 -80 -224 110 -347 308
-313 503 38 221 257 402 552 455 83 16 243 19 273 6z m5120 -39 c56 -25 101
-66 131 -117 16 -27 33 -44 44 -44 25 0 80 -48 94 -82 7 -15 27 -38 46 -50 51
-35 73 -71 78 -130 3 -44 0 -59 -20 -88 -29 -42 -83 -80 -114 -80 -33 0 -30
26 3 35 70 17 111 80 97 150 -7 36 -41 77 -85 98 -13 7 -25 22 -27 34 -4 29
-66 83 -95 83 -16 0 -27 11 -39 38 -21 45 -70 97 -112 119 -16 8 -55 18 -88
20 -73 7 -132 -14 -186 -67 -37 -35 -43 -37 -86 -33 -55 7 -100 -10 -125 -46
-26 -37 -32 -72 -21 -112 9 -31 8 -36 -15 -53 -85 -62 -66 -191 33 -226 44
-15 57 -40 22 -40 -36 0 -97 38 -119 73 -22 37 -28 107 -12 149 5 13 20 35 34
48 20 20 23 30 19 66 -3 31 2 55 17 88 30 61 78 90 151 90 44 1 60 6 80 25 71
67 208 92 295 52z m-5155 -231 c0 -33 3 -60 7 -60 4 0 26 18 48 40 l41 40 52
-53 52 -53 -35 -34 c-50 -48 -46 -60 20 -60 l55 0 0 -75 0 -75 -49 0 c-63 0
-68 -15 -23 -63 l36 -37 -52 -52 -52 -52 -34 33 c-46 44 -66 37 -66 -24 l0
-45 -75 0 -75 0 0 45 c0 60 -21 69 -63 26 l-31 -31 -53 52 -53 52 36 37 c20
21 33 42 30 48 -4 6 -29 11 -57 11 l-49 0 0 75 0 75 53 0 c30 0 57 3 61 7 3 4
-12 25 -34 48 l-40 41 53 52 53 52 39 -40 c21 -22 43 -40 47 -40 4 0 8 27 8
60 l0 60 75 0 75 0 0 -60z m5220 21 c5 -11 10 -52 10 -91 0 -97 -8 -110 -71
-110 -35 0 -60 -6 -80 -21 l-29 -21 -34 21 c-21 13 -50 21 -78 21 -24 0 -49 5
-56 12 -7 7 -12 44 -12 98 0 54 5 91 12 98 8 8 60 12 170 12 145 0 158 -1 168
-19z m150 -334 l0 -84 -322 1 -323 1 -3 83 -3 82 326 0 325 0 0 -83z m0 -177
l0 -80 -325 0 -325 0 0 80 0 80 325 0 325 0 0 -80z m0 -180 l0 -80 -325 0
-325 0 0 80 0 80 325 0 325 0 0 -80z m-3994 -549 c41 -19 84 -66 84 -94 0 -8
-15 -18 -32 -23 -30 -9 -36 -7 -64 23 -42 44 -90 45 -136 4 -29 -26 -33 -35
-33 -81 0 -46 4 -55 33 -81 46 -42 93 -40 138 5 32 32 36 33 69 23 19 -6 35
-13 35 -17 0 -14 -46 -74 -72 -93 -33 -25 -114 -33 -162 -17 -48 16 -96 56
-112 97 -30 71 -9 178 43 225 53 48 140 60 209 29z m712 4 c77 -33 115 -91
115 -175 0 -61 -17 -102 -60 -141 -77 -71 -207 -61 -276 20 -31 37 -41 83 -35
151 12 119 142 192 256 145z m355 4 c36 -18 67 -51 67 -70 0 -10 -12 -21 -30
-28 -26 -9 -33 -7 -55 15 -29 29 -45 30 -75 6 -32 -26 -17 -48 43 -62 91 -21
126 -53 127 -113 0 -77 -65 -125 -156 -114 -55 6 -90 29 -111 72 -19 40 -17
44 29 52 30 4 36 2 41 -16 12 -49 112 -50 112 -1 0 22 -7 26 -65 41 -101 27
-143 88 -107 159 29 57 123 88 180 59z m1533 -9 c42 -21 65 -46 78 -86 6 -19
1 -23 -34 -32 -24 -6 -40 -6 -40 0 0 21 -50 58 -80 58 -38 0 -86 -24 -100 -49
-15 -29 -12 -98 5 -125 37 -56 126 -58 167 -5 22 27 26 29 56 18 38 -13 39
-20 10 -67 -42 -68 -151 -92 -236 -51 -109 53 -134 200 -49 296 57 65 143 81
223 43z m627 6 c31 -13 67 -53 67 -75 0 -6 -15 -14 -32 -19 -28 -7 -36 -5 -55
15 -12 12 -29 23 -38 23 -28 0 -55 -20 -55 -40 0 -23 21 -35 78 -45 117 -19
148 -138 53 -202 -65 -44 -163 -22 -208 46 -26 39 -24 47 16 56 23 5 34 0 59
-24 17 -17 38 -31 47 -31 28 0 55 20 55 41 0 21 -24 34 -84 44 -54 9 -96 52
-96 100 0 97 96 152 193 111z m-4768 -21 c14 -13 25 -31 25 -40 0 -9 -11 -27
-25 -40 -47 -48 -135 -22 -135 40 0 62 88 88 135 40z m794 -92 c25 -62 49
-113 52 -113 3 0 25 52 49 115 l43 115 59 0 58 0 0 -180 0 -180 -40 0 -40 0 0
112 c0 62 -4 108 -8 103 -5 -6 -26 -56 -48 -112 l-39 -103 -35 0 -36 0 -44
113 -45 112 -3 -112 -3 -113 -39 0 -40 0 0 180 0 181 57 -3 57 -3 45 -112z
m421 -63 l0 -180 -42 0 -43 0 3 180 3 180 39 0 40 0 0 -180z m674 170 c70 -26
84 -131 26 -182 l-30 -28 35 -70 35 -70 -45 0 -45 0 -32 65 c-18 36 -38 65
-45 65 -9 0 -13 -19 -13 -65 l0 -65 -45 0 -45 0 0 180 0 180 89 0 c49 0 101
-4 115 -10z m1086 -31 l0 -41 -75 7 -75 7 0 -36 0 -35 68 -3 67 -3 0 -35 0
-35 -67 -3 -68 -3 0 -35 0 -35 73 2 72 2 3 -36 3 -37 -115 0 -116 0 0 180 0
180 115 0 115 0 0 -41z m296 7 c26 -26 34 -42 34 -70 0 -36 -23 -96 -38 -96
-4 0 -13 -4 -20 -9 -11 -6 -6 -23 22 -80 l36 -71 -46 0 -45 0 -30 65 c-17 38
-35 65 -44 65 -12 0 -15 -14 -15 -65 l0 -65 -40 0 -40 0 0 180 0 180 96 0 c96
0 96 0 130 -34z m194 -93 l44 -127 41 124 42 125 45 3 46 3 -67 -181 -66 -181
-45 3 -44 3 -58 160 c-32 88 -61 168 -64 178 -5 14 1 17 39 17 l44 0 43 -127z
m342 -53 l3 -180 -42 0 -43 0 0 180 0 180 40 0 39 0 3 -180z m708 139 l0 -41
-72 4 -73 3 -3 -32 -3 -33 70 0 71 0 0 -40 0 -40 -71 0 -70 0 3 -32 3 -33 73
-3 72 -3 0 -34 0 -35 -115 0 -115 0 0 180 0 180 115 0 115 0 0 -41z m570 21
c45 -45 10 -110 -59 -110 -31 0 -44 6 -60 26 -27 34 -26 50 4 79 31 32 86 34
115 5z m-3136 -678 c-21 -15 -148 -102 -281 -192 -134 -91 -243 -167 -243
-170 0 -3 29 -18 63 -33 74 -33 192 -106 184 -113 -3 -3 -26 8 -50 25 -89 61
-246 129 -339 146 -21 4 -38 11 -38 16 0 10 32 4 94 -18 21 -7 46 -13 55 -13
10 0 141 85 292 189 150 104 280 190 288 190 8 1 -4 -12 -25 -27z m2054 -238
c169 -130 317 -246 329 -257 24 -21 28 -21 138 12 77 23 238 40 328 33 95 -7
64 -17 -40 -14 -246 8 -452 -64 -598 -212 -117 -118 -161 -247 -131 -379 19
-81 35 -115 89 -185 80 -105 223 -190 392 -233 125 -31 313 -32 438 -1 368 91
568 365 466 638 -11 29 -34 71 -52 94 -58 77 -63 87 -31 58 80 -74 130 -206
121 -325 -16 -216 -202 -397 -488 -475 -120 -33 -345 -32 -469 1 -222 59 -397
194 -461 359 -18 44 -23 78 -23 147 0 84 2 96 37 169 44 93 138 192 234 246
34 19 62 37 62 40 0 3 -146 117 -325 255 -305 233 -344 265 -330 265 4 0 144
-106 314 -236z m1815 -74 c32 -36 34 -58 6 -94 -35 -45 -105 -33 -134 24 -21
40 -19 57 11 87 33 32 77 26 117 -17z m-4669 12 c3 -5 -50 -7 -117 -5 -757 28
-1233 -594 -805 -1052 138 -148 321 -241 550 -281 141 -24 391 -15 520 19 307
81 543 281 604 511 18 68 18 188 -2 261 -19 74 -69 165 -124 228 -48 54 -50
74 -3 24 184 -195 208 -474 59 -693 -181 -267 -606 -427 -992 -373 -394 55
-695 270 -769 549 -8 30 -15 89 -15 130 0 317 278 586 695 670 95 19 389 28
399 12z m16 -249 c36 -17 80 -44 98 -60 l33 -28 -150 -155 -150 -155 -152 152
-153 152 20 22 c27 31 90 69 149 91 39 14 71 18 145 15 83 -2 103 -7 160 -34z
m3724 -83 c110 -42 193 -148 203 -261 l6 -59 -167 0 -166 0 0 170 0 170 35 0
c19 0 59 -9 89 -20z m-184 -173 l0 -162 -118 -118 -118 -117 -26 27 c-55 59
-73 110 -73 209 0 81 3 96 30 149 51 99 165 174 268 175 l37 0 0 -163z m-3575
-67 l140 141 34 -38 c18 -21 48 -67 64 -103 28 -59 31 -74 32 -165 0 -92 -3
-105 -32 -167 -44 -94 -109 -160 -202 -206 -72 -35 -79 -37 -175 -37 -92 1
-107 4 -166 31 -127 61 -208 161 -236 295 -26 123 5 247 89 352 l31 38 141
-141 140 -140 140 140z m-1401 80 c53 -20 58 -81 9 -126 -34 -31 -77 -31 -108
1 -31 30 -31 54 -4 89 32 41 63 52 103 36z m3445 -136 c41 -52 19 -125 -41
-140 -37 -8 -88 41 -88 84 0 44 34 82 75 82 24 0 39 -7 54 -26z m1919 -137
c-17 -207 -251 -340 -445 -252 -34 15 -72 38 -84 51 l-23 25 114 114 115 115
164 0 163 0 -4 -53z"/>
<path d="M4116 4401 c-13 -15 -26 -18 -56 -14 -34 5 -40 2 -56 -23 -11 -16
-29 -37 -41 -47 -28 -22 -29 -48 -5 -70 27 -24 293 -25 316 -1 20 20 20 48 1
64 -8 7 -15 21 -15 30 0 10 -12 32 -26 49 -20 25 -34 31 -63 31 -25 0 -44 -7
-55 -19z"/>
<path d="M4335 4071 c-12 -5 -27 -16 -34 -24 -10 -13 -17 -14 -36 -5 -19 9
-30 7 -50 -6 -14 -9 -25 -23 -25 -30 0 -8 -11 -21 -25 -30 -30 -20 -33 -56 -7
-79 15 -14 42 -17 153 -17 138 0 159 5 172 41 3 9 -2 27 -11 40 -9 13 -18 33
-20 44 -6 46 -74 84 -117 66z"/>
<path d="M878 3783 c-3 -49 -6 -58 -23 -61 -13 -2 -33 11 -55 33 l-34 35 -38
-37 -38 -37 35 -36 c26 -26 33 -41 29 -58 -6 -19 -13 -22 -60 -22 l-54 0 0
-55 0 -55 49 0 c44 0 49 -2 55 -26 6 -22 1 -33 -25 -60 l-33 -34 34 -35 c19
-19 38 -35 43 -35 5 0 22 13 38 29 25 26 32 28 54 18 21 -10 25 -19 25 -54 l0
-43 55 0 55 0 0 43 c0 38 3 44 28 53 24 10 31 7 60 -20 l32 -30 37 37 37 37
-32 33 c-29 30 -32 37 -23 60 9 24 16 27 58 27 l48 0 -3 55 -4 55 -49 0 c-37
0 -51 4 -58 18 -8 15 -3 25 24 52 19 19 35 39 35 45 0 6 -16 26 -35 45 l-35
34 -39 -38 c-30 -29 -44 -36 -60 -31 -18 5 -21 14 -21 61 l0 54 -55 0 -54 0
-3 -57z m72 -47 c0 -7 17 -18 38 -25 20 -6 47 -20 59 -30 28 -24 63 -81 63
-104 0 -11 9 -21 20 -24 25 -7 26 -23 1 -23 -14 0 -21 -10 -25 -36 -9 -47 -73
-111 -120 -120 -26 -4 -36 -11 -36 -25 0 -25 -16 -24 -23 1 -3 11 -13 20 -23
20 -37 0 -102 49 -123 93 -12 24 -21 49 -21 55 0 7 -9 12 -20 12 -11 0 -20 5
-20 10 0 6 8 10 19 10 14 0 21 10 26 38 9 48 80 118 130 128 26 4 35 11 35 26
0 10 5 16 10 13 6 -3 10 -12 10 -19z"/>
<path d="M5914 3796 c-3 -7 -4 -42 -2 -77 l3 -64 49 -3 c27 -2 59 -10 72 -18
21 -14 25 -14 46 0 13 9 43 16 70 16 l48 0 0 80 0 80 -140 0 c-109 0 -142 -3
-146 -14z"/>
<path d="M5770 3485 l0 -45 290 0 290 0 0 45 0 45 -290 0 -290 0 0 -45z"/>
<path d="M5770 3310 l0 -50 290 0 290 0 0 50 0 50 -290 0 -290 0 0 -50z"/>
<path d="M5770 3130 l0 -50 290 0 290 0 0 50 0 50 -290 0 -290 0 0 -50z"/>
<path d="M2958 2491 c-29 -26 -33 -35 -33 -81 0 -46 4 -55 33 -81 71 -63 172
-16 172 81 0 96 -102 144 -172 81z"/>
<path d="M1713 1322 c-28 -10 -68 -31 -88 -47 l-37 -28 123 -123 124 -123 125
125 c142 142 140 130 30 182 -73 35 -199 41 -277 14z"/>
<path d="M5640 1113 l0 -138 135 0 135 0 0 25 c0 39 -44 123 -85 165 -39 38
-95 68 -152 80 l-33 7 0 -139z"/>
<path d="M5436 1204 c-74 -23 -159 -112 -182 -189 -22 -78 -15 -158 22 -224
15 -28 32 -51 38 -51 6 0 53 45 104 99 l92 99 0 141 c0 157 5 149 -74 125z"/>
<path d="M1534 1067 c-38 -56 -52 -91 -64 -155 -29 -162 61 -327 218 -400 48
-22 71 -27 147 -27 81 0 97 3 155 31 84 41 145 101 184 183 27 59 31 76 31
156 0 76 -4 99 -26 145 -14 30 -35 66 -47 80 l-21 25 -134 -140 -135 -140
-139 138 c-76 75 -140 137 -143 137 -3 0 -15 -15 -26 -33z"/>
<path d="M5525 750 c-111 -111 -109 -102 -20 -146 61 -29 148 -32 221 -7 66
22 145 101 167 167 31 90 37 86 -126 86 l-142 0 -100 -100z"/>
</g>
</svg>
